# xmcd
#
# Track frame offsets: 
#        150
#        14207
#        26758
#        37984
#        55614
#        67461
#        80925
#        97058
#        110555
#        123755
#        136482
#
# Disc length: 2018 seconds
#
# Revision: 0
# Processed by: cddbd v1.5.2PL0 Copyright (c) Steve Scherf et al.
# Submitted via: ExactAudioCopy v1.0b3
#
DISCID=a307e00b
DTITLE=Johnny Cash - Icon
DYEAR=2014
DGENRE=Country
TTITLE0=Tennessee Flat Top Box
TTITLE1=Ballad of a Teenage Queen
TTITLE2=Don't Go Near The Water
TTITLE3=Sunday Mornin' Comin' Down
TTITLE4=I'm an Easy Rider
TTITLE5=I Still Miss Somone
TTITLE6=The Greatest Cowboy of Them All
TTITLE7=Water From the Wells of Home
TTITLE8=Don't Take Your Guns to Town
TTITLE9=Family Bible
TTITLE10=Goin' by the Book
EXTD=
EXTT0=
EXTT1=
EXTT2=
EXTT3=
EXTT4=
EXTT5=
EXTT6=
EXTT7=
EXTT8=
EXTT9=
EXTT10=
PLAYORDER=
